<svg xmlns="http://www.w3.org/2000/svg" width="800" height="400" viewBox="0 0 800 400">
  <!-- Background with gradient -->
  <defs>
    <linearGradient id="bgGradient" x1="0%" y1="0%" x2="100%" y2="100%">
      <stop offset="0%" stop-color="#f0f9ff" />
      <stop offset="100%" stop-color="#dbeafe" />
    </linearGradient>
    <linearGradient id="blogGradient" x1="0%" y1="0%" x2="100%" y2="100%">
      <stop offset="0%" stop-color="#3b82f6" />
      <stop offset="100%" stop-color="#1d4ed8" />
    </linearGradient>
    <filter id="shadow" x="-20%" y="-20%" width="140%" height="140%">
      <feDropShadow dx="0" dy="4" stdDeviation="10" flood-color="rgba(0,0,0,0.15)"/>
    </filter>
  </defs>
  
  <!-- Main background -->
  <rect width="800" height="400" fill="url(#bgGradient)" rx="12" ry="12"/>
  
  <!-- Decorative elements -->
  <circle cx="700" cy="80" r="60" fill="#bfdbfe" opacity="0.4"/>
  <circle cx="100" cy="320" r="80" fill="#bfdbfe" opacity="0.3"/>
  
  <!-- Blog cards -->
  <g transform="translate(200, 200)" filter="url(#shadow)">
    <!-- Main blog card -->
    <rect x="-120" y="-100" width="240" height="200" rx="10" fill="white" stroke="#e2e8f0" stroke-width="2"/>
    <rect x="-120" y="-100" width="240" height="100" rx="10" fill="url(#blogGradient)"/>
    <rect x="-100" y="20" width="200" height="10" rx="5" fill="#e2e8f0"/>
    <rect x="-100" y="40" width="150" height="10" rx="5" fill="#e2e8f0"/>
    <rect x="-100" y="60" width="180" height="10" rx="5" fill="#e2e8f0"/>
    <circle cx="-90" cy="-10" r="10" fill="#3b82f6"/>
    <rect x="-70" y="-15" width="50" height="10" rx="5" fill="#3b82f6"/>
  </g>
  
  <g transform="translate(500, 150)" filter="url(#shadow)">
    <!-- Secondary blog card 1 -->
    <rect x="-80" y="-70" width="160" height="140" rx="10" fill="white" stroke="#e2e8f0" stroke-width="2"/>
    <rect x="-80" y="-70" width="160" height="70" rx="10" fill="#60a5fa"/>
    <rect x="-65" y="10" width="130" height="8" rx="4" fill="#e2e8f0"/>
    <rect x="-65" y="25" width="100" height="8" rx="4" fill="#e2e8f0"/>
    <rect x="-65" y="40" width="120" height="8" rx="4" fill="#e2e8f0"/>
    <circle cx="-60" cy="-5" r="8" fill="#3b82f6"/>
    <rect x="-45" y="-9" width="40" height="8" rx="4" fill="#3b82f6"/>
  </g>
  
  <g transform="translate(500, 300)" filter="url(#shadow)">
    <!-- Secondary blog card 2 -->
    <rect x="-80" y="-70" width="160" height="140" rx="10" fill="white" stroke="#e2e8f0" stroke-width="2"/>
    <rect x="-80" y="-70" width="160" height="70" rx="10" fill="#93c5fd"/>
    <rect x="-65" y="10" width="130" height="8" rx="4" fill="#e2e8f0"/>
    <rect x="-65" y="25" width="100" height="8" rx="4" fill="#e2e8f0"/>
    <rect x="-65" y="40" width="120" height="8" rx="4" fill="#e2e8f0"/>
    <circle cx="-60" cy="-5" r="8" fill="#3b82f6"/>
    <rect x="-45" y="-9" width="40" height="8" rx="4" fill="#3b82f6"/>
  </g>
  
  <!-- Content creation elements -->
  <g transform="translate(150, 100)">
    <circle cx="0" cy="0" r="40" fill="white" stroke="#e2e8f0" stroke-width="2" filter="url(#shadow)"/>
    <g transform="translate(-15, -15) scale(0.06)">
      <!-- Pencil icon -->
      <path d="M471.6 21.7c-21.9-21.9-57.3-21.9-79.2 0L362.3 51.7l97.9 97.9 30.1-30.1c21.9-21.9 21.9-57.3 0-79.2L471.6 21.7zm-299.2 220c-6.1 6.1-10.8 13.6-13.5 21.9l-29.6 88.8c-2.9 8.6-.6 18.1 5.8 24.6s15.9 8.7 24.6 5.8l88.8-29.6c8.2-2.7 15.7-7.4 21.9-13.5L437.7 172.3 339.7 74.3 172.4 241.7zM96 64C43 64 0 107 0 160V416c0 53 43 96 96 96H352c53 0 96-43 96-96V320c0-17.7-14.3-32-32-32s-32 14.3-32 32v96c0 17.7-14.3 32-32 32H96c-17.7 0-32-14.3-32-32V160c0-17.7 14.3-32 32-32h96c17.7 0 32-14.3 32-32s-14.3-32-32-32H96z" fill="#3b82f6"/>
    </g>
  </g>
  
  <!-- Knowledge sharing visualization -->
  <g transform="translate(650, 250)">
    <circle cx="0" cy="0" r="50" fill="white" stroke="#e2e8f0" stroke-width="2" filter="url(#shadow)"/>
    <g transform="translate(-20, -20) scale(0.08)">
      <!-- Share icon -->
      <path d="M503.7 226.2l-176 151.1c-15.38 13.3-39.69 2.545-39.69-18.16V272.1C132.9 274.3 66.06 312.8 111.4 457.8c5.031 16.09-14.41 28.56-28.06 18.62C39.59 444.6 0 383.8 0 322.3c0-152.2 127.4-184.4 288-186.3V56.02c0-20.67 24.28-31.46 39.69-18.16l176 151.1C514.8 199.4 514.8 216.6 503.7 226.2z" fill="#3b82f6"/>
    </g>
    <circle cx="0" cy="0" r="40" fill="none" stroke="#3b82f6" stroke-width="2" stroke-dasharray="5,5">
      <animate attributeName="r" values="40;45;40" dur="3s" repeatCount="indefinite"/>
    </circle>
  </g>
</svg>