<svg xmlns="http://www.w3.org/2000/svg" width="800" height="400" viewBox="0 0 800 400">
  <!-- Background with gradient -->
  <defs>
    <linearGradient id="bgGradient" x1="0%" y1="0%" x2="100%" y2="100%">
      <stop offset="0%" stop-color="#f0f9ff" />
      <stop offset="100%" stop-color="#dbeafe" />
    </linearGradient>
    <linearGradient id="cameraGradient" x1="0%" y1="0%" x2="100%" y2="100%">
      <stop offset="0%" stop-color="#3b82f6" />
      <stop offset="100%" stop-color="#1d4ed8" />
    </linearGradient>
    <filter id="shadow" x="-20%" y="-20%" width="140%" height="140%">
      <feDropShadow dx="0" dy="4" stdDeviation="10" flood-color="rgba(0,0,0,0.15)"/>
    </filter>
  </defs>
  
  <!-- Main background -->
  <rect width="800" height="400" fill="url(#bgGradient)" rx="12" ry="12"/>
  
  <!-- Decorative elements -->
  <circle cx="700" cy="80" r="60" fill="#bfdbfe" opacity="0.4"/>
  <circle cx="100" cy="320" r="80" fill="#bfdbfe" opacity="0.3"/>
  
  <!-- Smart home system -->
  <rect x="80" y="100" width="240" height="180" rx="10" ry="10" fill="#f8fafc" stroke="#e2e8f0" stroke-width="2" filter="url(#shadow)"/>
  <rect x="100" y="120" width="200" height="120" rx="5" ry="5" fill="url(#cameraGradient)" stroke="#2563eb" stroke-width="2"/>
  <circle cx="200" cy="180" r="40" fill="#1d4ed8" stroke="#2563eb" stroke-width="2"/>
  <circle cx="200" cy="180" r="20" fill="#bfdbfe" stroke="#2563eb" stroke-width="2"/>
  <rect x="150" y="260" width="100" height="10" rx="5" ry="5" fill="#94a3b8"/>
  <circle cx="160" cy="260" r="5" fill="#22c55e"/>
  
  <!-- Person silhouette -->
  <g transform="translate(500, 200)">
    <circle cx="0" cy="0" r="20" fill="#1e293b"/>
    <line x1="0" y1="20" x2="0" y2="70" stroke="#1e293b" stroke-width="10" stroke-linecap="round"/>
    <line x1="0" y1="40" x2="-30" y2="80" stroke="#1e293b" stroke-width="10" stroke-linecap="round"/>
    <line x1="0" y1="40" x2="30" y2="80" stroke="#1e293b" stroke-width="10" stroke-linecap="round"/>
    <line x1="0" y1="30" x2="-25" y2="20" stroke="#1e293b" stroke-width="10" stroke-linecap="round"/>
    <line x1="0" y1="30" x2="25" y2="20" stroke="#1e293b" stroke-width="10" stroke-linecap="round"/>
    
    <!-- Fall detection animation -->
    <g transform="rotate(30)">
      <line x1="0" y1="20" x2="0" y2="70" stroke="#ef4444" stroke-width="10" stroke-linecap="round" opacity="0.3">
        <animate attributeName="opacity" values="0;0.3;0" dur="2s" repeatCount="indefinite"/>
      </line>
      <line x1="0" y1="40" x2="-30" y2="80" stroke="#ef4444" stroke-width="10" stroke-linecap="round" opacity="0.3">
        <animate attributeName="opacity" values="0;0.3;0" dur="2s" repeatCount="indefinite"/>
      </line>
      <line x1="0" y1="40" x2="30" y2="80" stroke="#ef4444" stroke-width="10" stroke-linecap="round" opacity="0.3">
        <animate attributeName="opacity" values="0;0.3;0" dur="2s" repeatCount="indefinite"/>
      </line>
    </g>
  </g>
  
  <!-- Detection waves -->
  <circle cx="500" cy="200" r="50" fill="none" stroke="#22c55e" stroke-width="3" stroke-dasharray="5,5" opacity="0.7">
    <animate attributeName="r" values="50;70;50" dur="2s" repeatCount="indefinite"/>
    <animate attributeName="opacity" values="0.7;0.3;0.7" dur="2s" repeatCount="indefinite"/>
  </circle>
  <circle cx="500" cy="200" r="70" fill="none" stroke="#22c55e" stroke-width="2" stroke-dasharray="5,5" opacity="0.5">
    <animate attributeName="r" values="70;90;70" dur="2s" repeatCount="indefinite"/>
    <animate attributeName="opacity" values="0.5;0.2;0.5" dur="2s" repeatCount="indefinite"/>
  </circle>
  
  <!-- Alert notification -->
  <g transform="translate(600, 120)">
    <rect x="-40" y="-30" width="80" height="60" rx="10" ry="10" fill="white" stroke="#e2e8f0" stroke-width="2" filter="url(#shadow)"/>
    <circle cx="-20" cy="0" r="15" fill="#ef4444" opacity="0.9">
      <animate attributeName="opacity" values="0.9;1;0.9" dur="1s" repeatCount="indefinite"/>
    </circle>
    <rect x="-23" y="-7" width="6" height="10" fill="white" rx="1" ry="1"/>
    <circle cx="-20" cy="8" r="2" fill="white"/>
    <line x1="0" y1="-10" x2="30" y2="-10" stroke="#64748b" stroke-width="2" stroke-linecap="round"/>
    <line x1="0" y1="0" x2="30" y2="0" stroke="#64748b" stroke-width="2" stroke-linecap="round"/>
    <line x1="0" y1="10" x2="20" y2="10" stroke="#64748b" stroke-width="2" stroke-linecap="round"/>
  </g>
  
  <!-- AI processing visualization -->
  <g transform="translate(400, 320)">
    <rect x="-60" y="-25" width="120" height="50" rx="8" ry="8" fill="#1e293b" opacity="0.9"/>
    <text x="0" y="0" font-family="Arial, sans-serif" font-size="14" font-weight="bold" fill="white" text-anchor="middle" dominant-baseline="middle">AI PROCESSING</text>
    <rect x="-50" y="10" width="100" height="6" rx="3" ry="3" fill="#475569"/>
    <rect x="-50" y="10" width="60" height="6" rx="3" ry="3" fill="#3b82f6">
      <animate attributeName="width" values="0;60;0" dur="2s" repeatCount="indefinite"/>
    </rect>
  </g>
  
  <!-- Binary code background -->
  <text x="50" y="380" font-family="monospace" font-size="10" fill="#94a3b8" opacity="0.3">10110101 01001010 11010101 00101010 10101010 01010101 10101010 10101010 01010101 10101010</text>
</svg>